User Type,Username,Date,Text
[T],Orion_Me,2013-05-13T17:07Z,"Complete File Info:
General
Complete name                    : Hansel and Gretel Witch Hunters (2013) 720p BrRip 700 MB[Orion_Me].mkv
Format                           : Matroska
File size                        : 701 MiB
Duration                         : 1h 37mn
Overall bit rate                 : 1 001 Kbps
Encoded date                     : UTC 2013-05-13 06:57:03
Writing application              : mkvmerge v6.1.0 ('Old Devil') built on Mar  2 2013 14:32:37
Writing library                  : libebml v1.3.0 + libmatroska v1.4.0

Video
ID                               : 1
Format                           : AVC
Format/Info                      : Advanced Video Codec
Format profile                   : High@L3.1
Format settings, CABAC           : Yes
Format settings, ReFrames        : 4 frames
Format settings, GOP             : M=4, N=16
Muxing mode                      : Container profile=Unknown@3.1
Codec ID                         : V_MPEG4/ISO/AVC
Duration                         : 1h 37mn
Bit rate                         : 615 Kbps
Width                            : 1 280 pixels
Height                           : 528 pixels
Display aspect ratio             : 2.40:1
Frame rate                       : 23.976 fps
Color space                      : YUV
Chroma subsampling               : 4:2:0
Bit depth                        : 8 bits
Scan type                        : Progressive
Bits/(Pixel*Frame)               : 0.038
Stream size                      : 418 MiB (60%)
Writing library                  : x264 core 130 r2273 b3065e6

Audio
ID                               : 2
Format                           : AC-3
Format/Info                      : Audio Coding 3
Mode extension                   : CM (complete main)
Codec ID                         : A_AC3
Duration                         : 1h 37mn
Bit rate mode                    : Constant
Bit rate                         : 384 Kbps
Channel(s)                       : 6 channels
Channel positions                : Front: L C R, Side: L R, LFE
Sampling rate                    : 48.0 KHz
Bit depth                        : 16 bits
Stream size                      : 269 MiB (38%)
"
,crossebby,2013-05-14T08:07Z,"Thank U, Will comment after download"
